<?xml version="1.0" encoding="utf-8"?>
<!-- Generator: Adobe Illustrator 16.0.4, SVG Export Plug-In . SVG Version: 6.00 Build 0)  -->
<!DOCTYPE svg PUBLIC "-//W3C//DTD SVG 1.1//EN" "http://www.w3.org/Graphics/SVG/1.1/DTD/svg11.dtd">
<svg version="1.1" id="Ebene_1" xmlns="http://www.w3.org/2000/svg" xmlns:xlink="http://www.w3.org/1999/xlink" x="0px" y="0px"
	 width="1170px" height="445px" viewBox="0 0 1170 445"  xml:space="preserve">
<g>
	<path id="path31402" d="M409.288,83.699c126.524,9.322,197.744-26.487,222.181-73.526h129.184
		C721.803,122.5,600.674,192.875,409.287,183.247L409.288,83.699"/>
	<path id="path31404" d="M853.943,183.32l-46.334,65.093l107.035,156.621V183.32H853.943z M533.579,196.525l-0.01,200.575
		l101.058-150.079l-47.398-62.092c39.598-10.924,75.557-27.826,106.896-52.368l30.525,38.672l57.939-87.535h329.264v99.354h-74.045
		v242.584H782.586l-65.316-97.575l-67.891,97.575H409.314V358.92c-17.253,47.179-71.727,75.908-179.735,75.908
		c-160.214,0-167.979-56.631-170.434-121.49h126.7c0.408,19.358,3.681,33.396,11.444,42.592
		c8.176,9.203,19.212,14.038,35.559,14.038c25.746,0,53.538-7.257,53.538-35.333c0-6.291-2.04-11.612-5.312-15.97
		c-16.754-22.255-157.764-38.715-197.41-79.861c-15.936-16.461-20.84-41.136-20.84-60.987c0-76.474,59.264-110.834,177.382-110.834
		c125.468,0,155.17,43.917,156.812,116.035H275.004c-0.814-19.36-6.616-34.484-15.125-41.5c-8.22-6.781-15.345-9.923-27.856-9.683
		c-26.149,0.52-40.044,11.622-40.044,29.536c0,5.32,1.632,12.095,5.31,15.967c19.212,21.777,155.717,37.273,194.953,78.89
		c6.228,6.588,12.577,15.187,17.07,27.122v-80.492C449.85,204.354,492.034,203.021,533.579,196.525"/>
</g>
</svg>
